<svg width="162" height="44" viewBox="0 0 162 44" fill="none" xmlns="http://www.w3.org/2000/svg">
<g clip-path="url(#clip0_16_3535)">
<path d="M94.5437 15.0824C94.3354 14.8288 94.075 14.6322 93.7729 14.4977C93.4656 14.3632 93.1115 14.2959 92.7104 14.2959C92.3094 14.2959 91.9396 14.3735 91.5959 14.5288C91.2522 14.684 90.9553 14.8961 90.7053 15.1755C90.4553 15.4549 90.2574 15.7809 90.1168 16.1637C89.9762 16.5466 89.9032 16.9554 89.9032 17.4003C89.9032 17.8453 89.9762 18.2696 90.1168 18.6421C90.2574 19.0198 90.4501 19.3458 90.7001 19.62C90.9449 19.8942 91.2365 20.1115 91.5699 20.2668C91.9032 20.422 92.2626 20.4996 92.6427 20.4996C93.0802 20.4996 93.4656 20.4116 93.8042 20.2254C94.1427 20.0443 94.4187 19.7907 94.6375 19.4648L96.4187 20.7842C96.0072 21.3533 95.4864 21.7776 94.8562 22.0466C94.226 22.3157 93.5802 22.4554 92.9136 22.4554C92.1532 22.4554 91.4605 22.3364 90.8199 22.1035C90.1793 21.8655 89.6272 21.5292 89.1637 21.0894C88.7002 20.6496 88.3356 20.1167 88.0752 19.4907C87.8148 18.8646 87.6846 18.1661 87.6846 17.3952C87.6846 16.6242 87.8148 15.9257 88.0752 15.2997C88.3356 14.6736 88.7002 14.1407 89.1637 13.7009C89.6272 13.2611 90.1793 12.9248 90.8199 12.6868C91.4605 12.4488 92.1584 12.335 92.9136 12.335C93.1896 12.335 93.4708 12.3608 93.7677 12.4074C94.0646 12.4591 94.3562 12.5367 94.6427 12.6454C94.9291 12.7541 95.2052 12.8989 95.4708 13.08C95.7364 13.2611 95.9708 13.4836 96.1843 13.7475L94.5437 15.0824Z" fill="#FF6B00"/>
<path d="M98.9549 12.5781H102.705C103.2 12.5781 103.663 12.6247 104.106 12.723C104.548 12.8213 104.934 12.9765 105.267 13.199C105.601 13.4215 105.866 13.7216 106.059 14.0941C106.257 14.4718 106.356 14.9375 106.356 15.5015C106.356 16.1793 106.179 16.7587 105.819 17.2348C105.46 17.7108 104.944 18.0109 104.257 18.1402L106.72 22.207H104.163L102.137 18.3575H101.085V22.207H98.9497V12.5781H98.9549ZM101.09 16.5621H102.351C102.543 16.5621 102.746 16.557 102.96 16.5414C103.174 16.5259 103.366 16.4845 103.543 16.4173C103.715 16.35 103.861 16.2413 103.976 16.0965C104.09 15.9516 104.147 15.7498 104.147 15.4859C104.147 15.2428 104.095 15.0461 103.996 14.9013C103.897 14.7564 103.767 14.6426 103.611 14.5701C103.455 14.4925 103.278 14.4408 103.08 14.4149C102.877 14.389 102.684 14.3735 102.491 14.3735H101.095V16.5621H101.09Z" fill="#FF6B00"/>
<path d="M109.272 12.5781H115.855V14.5391H111.408V16.3345H115.611V18.2954H111.408V20.2512H116.1V22.2122H109.267V12.5833L109.272 12.5781Z" fill="#FF6B00"/>
<path d="M122.371 12.5781H124.137L128.35 22.207H125.944L125.11 20.1684H121.345L120.538 22.207H118.184L122.371 12.5781ZM123.194 15.3773L122.017 18.3679H124.387L123.194 15.3773Z" fill="#FF6B00"/>
<path d="M131.313 14.4563H128.548V12.5781H136.214V14.4563H133.449V22.207H131.313V14.4563Z" fill="#FF6B00"/>
<path d="M138.636 12.5781H140.772V22.207H138.636V12.5781Z" fill="#FF6B00"/>
<path d="M143.125 12.5781H145.563L147.959 18.8904H147.985L150.422 12.5781H152.709L148.714 22.207H147L143.125 12.5781Z" fill="#FF6B00"/>
<path d="M155.167 12.5781H161.75V14.5391H157.302V16.3345H161.505V18.2954H157.302V20.2512H161.995V22.2122H155.162V12.5833L155.167 12.5781Z" fill="#FF6B00"/>
<path d="M88.2052 27.2103H91.8041C92.3041 27.2103 92.778 27.2568 93.2259 27.3448C93.6738 27.4327 94.0644 27.5931 94.3978 27.8156C94.7311 28.0381 94.9967 28.3382 95.1894 28.7107C95.3873 29.0884 95.4811 29.5593 95.4811 30.1336C95.4811 30.7079 95.3925 31.1684 95.205 31.5461C95.0227 31.929 94.7727 32.2291 94.4498 32.4567C94.1269 32.6844 93.7519 32.8448 93.3145 32.9379C92.877 33.031 92.403 33.0828 91.8926 33.0828H90.3302V36.834H88.1948V27.2051L88.2052 27.2103ZM90.3406 31.2926H91.7624C91.9551 31.2926 92.1374 31.277 92.3145 31.2408C92.4916 31.2046 92.653 31.1425 92.7936 31.0546C92.9343 30.9666 93.0488 30.8528 93.1374 30.7027C93.2259 30.5527 93.2676 30.3664 93.2676 30.1388C93.2676 29.8956 93.2103 29.699 93.0957 29.5489C92.9811 29.3989 92.8353 29.285 92.6582 29.2023C92.4811 29.1195 92.2832 29.0677 92.0645 29.047C91.8458 29.0263 91.6374 29.0108 91.4343 29.0108H90.3406V31.2977V31.2926Z" fill="#FF6B00"/>
<path d="M100.377 27.2102H102.142L106.356 36.8391H103.95L103.116 34.8005H99.3508L98.5435 36.8391H96.1895L100.377 27.2102ZM101.2 30.0145L100.023 33.0051H102.392L101.2 30.0145Z" fill="#FF6B00"/>
<path d="M108.7 27.2102H112.449C112.944 27.2102 113.408 27.2568 113.85 27.3551C114.293 27.4534 114.679 27.6086 115.012 27.8311C115.345 28.0536 115.611 28.3537 115.803 28.7262C116.001 29.1039 116.1 29.5696 116.1 30.1335C116.1 30.8113 115.923 31.3908 115.564 31.8668C115.205 32.3428 114.689 32.6429 114.001 32.7723L116.465 36.8391H113.908L111.882 32.9896H110.83V36.8391H108.694V27.2102H108.7ZM110.835 31.1942H112.095C112.288 31.1942 112.491 31.189 112.705 31.1735C112.918 31.158 113.111 31.1166 113.288 31.0493C113.46 30.9821 113.606 30.8734 113.72 30.7285C113.835 30.5837 113.892 30.3819 113.892 30.118C113.892 29.8748 113.84 29.6782 113.741 29.5333C113.642 29.3885 113.512 29.2746 113.356 29.2022C113.199 29.1246 113.022 29.0729 112.824 29.047C112.621 29.0211 112.429 29.0056 112.236 29.0056H110.84V31.1942H110.835Z" fill="#FF6B00"/>
<path d="M120.569 29.0884H117.803V27.2102H125.47V29.0884H122.704V36.8391H120.569V29.0884Z" fill="#FF6B00"/>
<path d="M41.6701 30.1697C41.3785 30.2111 41.0868 30.2525 40.7952 30.3042C39.5973 30.5474 38.4932 30.9717 38.4932 32.4152C38.4932 33.6466 39.3056 34.2727 40.9045 34.2727C42.3368 34.2727 44.0399 33.7139 44.0399 31.0544V29.3367L43.769 29.5695C43.3368 29.942 42.5295 30.0559 41.6701 30.1697Z" fill="#FF6B00"/>
<path d="M19.4213 31.1683C19.4213 28.5865 17.4266 28.2605 15.6923 28.2605H12.3799V34.0761H15.6923C17.4266 34.0761 19.4213 33.745 19.4213 31.1683Z" fill="#FF6B00"/>
<path d="M63.3782 24.4783C61.2741 24.4783 60.373 25.6632 60.373 28.4365V34.9868L61.0241 35.0334C61.3626 35.0592 61.6803 35.0747 61.972 35.0903C62.5761 35.1161 64.0761 35.3231 65.8989 35.3076V27.8984C65.8989 25.5286 65.1229 24.4731 63.3834 24.4731L63.3782 24.4783Z" fill="#FF6B00"/>
<path d="M76.4035 21.1979C75.8358 18.0521 71.8099 8.04031 55.5136 2.64896C53.0449 1.82629 47.3315 0.134382 39.2485 0.00503073C35.3267 -0.0570577 32.7278 0.315473 28.9936 0.889791C27.2332 1.15367 10.9994 3.61651 3.4215 16.1015C0.822628 20.3752 0.0674434 24.0281 -0.000262731 27.2929C-0.0679689 30.9406 1.10908 38.3291 8.64529 42.3079V25.4561H16.8013C21.3845 25.4561 23.0198 28.4053 23.0198 31.1682C23.0198 33.9312 21.3897 36.8804 16.8013 36.8804H12.3743V43.6325C12.5306 43.6635 12.64 43.6894 12.6816 43.6946C16.7075 44.4448 21.0407 43.6946 23.9885 42.6391C24.1812 42.5667 24.3687 42.4942 24.5562 42.427C24.5562 42.427 24.7906 42.3286 25.1396 42.1734V29.3625H28.3009V32.8964C28.3009 32.8964 28.3634 32.6687 28.4728 32.26C28.5821 31.8512 28.6655 31.727 28.6655 31.727C29.3009 30.149 31.03 29.0055 32.7747 29.0055C32.9726 29.0055 33.2122 29.0365 33.4153 29.0935V32.1668C33.082 32.1099 32.6341 32.0737 32.2591 32.0737C29.8217 32.0737 28.478 33.6466 28.478 36.4975V40.5177C29.9988 39.6381 31.2331 38.7896 32.3372 38.2463C33.2851 37.7755 35.009 36.8959 37.5714 36.0888C36.0194 35.5558 35.134 34.3192 35.134 32.5704C35.134 29.6988 37.2537 29.0107 39.5401 28.7002C39.9412 28.6433 40.3318 28.5968 40.712 28.5502C42.4879 28.3432 44.0191 28.1621 44.0191 26.7962C44.0191 25.0732 42.8004 24.8352 41.4828 24.8352C39.9464 24.8352 39.0818 25.5079 38.9047 26.8376H35.5611C35.8892 23.2623 39.5089 22.7242 41.6651 22.7242C45.4462 22.7242 47.3628 23.9401 47.3628 26.3357V33.2379C47.3628 33.5587 47.3732 33.9778 47.4097 34.4072C47.5503 34.3969 47.6649 34.3917 47.7482 34.3865C48.394 34.3606 49.0502 34.3399 49.7377 34.3399C49.9721 34.3399 50.2117 34.3399 50.4564 34.3503V21.3635H53.8001V34.5003L54.3574 34.5314C55.2532 34.5935 56.149 34.6607 57.0135 34.728V22.2896H60.1749V24.7059L60.503 24.1367L60.5499 24.0591C61.3884 22.7242 62.8571 21.9326 64.4925 21.9326C67.8465 21.9326 69.2111 23.4693 69.2111 27.236V34.9867C69.3413 34.9556 69.4819 34.9246 69.6225 34.8936C70.7631 34.6193 71.8933 34.1951 72.8984 33.5276C74.2265 32.648 77.8045 29.0417 76.3827 21.2031L76.4035 21.1979ZM52.1439 19.3663C51.1179 19.3663 50.2742 18.5333 50.2742 17.514C50.2742 16.4947 51.1127 15.6617 52.1439 15.6617C53.1751 15.6617 54.0084 16.4947 54.0084 17.514C54.0084 18.5333 53.1699 19.3663 52.1439 19.3663Z" fill="#FF6B00"/>
</g>
<defs>
<clipPath id="clip0_16_3535">
<rect width="162" height="44" fill="white"/>
</clipPath>
</defs>
</svg>
